HIERARCHY
ROOT Hips
{
    OFFSET 0.000000 0.000000 0.000000
    CHANNELS 6 Xposition Yposition Zposition Zrotation Xrotation Yrotation
    JOINT Spine
    {
        OFFSET -0.000000 6.925600 0.000000
        CHANNELS 3 Zrotation Xrotation Yrotation
        JOINT Spine1
        {
            OFFSET -0.000000 16.343796 0.000000
            CHANNELS 3 Zrotation Xrotation Yrotation
            JOINT Neck
            {
                OFFSET -0.000000 18.032967 0.000000
                CHANNELS 3 Zrotation Xrotation Yrotation
                JOINT Head
                {
                    OFFSET -0.000000 13.091072 1.689171
                    CHANNELS 3 Zrotation Xrotation Yrotation
                    End Site
                    {
                        OFFSET -0.000000 16.891708 0.000000
                    }
                }
            }
            JOINT LeftShoulder
            {
                OFFSET 3.336773 14.146137 -0.012206
                CHANNELS 3 Zrotation Xrotation Yrotation
                JOINT LeftArm
                {
                    OFFSET 11.765518 0.000000 0.000000
                    CHANNELS 3 Zrotation Xrotation Yrotation
                    JOINT LeftForeArm
                    {
                        OFFSET 25.163450 0.000000 0.000000
                        CHANNELS 3 Zrotation Xrotation Yrotation
                        JOINT LeftHand
                        {
                            OFFSET 21.783554 0.000000 0.000000
                            CHANNELS 3 Zrotation Xrotation Yrotation
                            End Site
                            {
                                OFFSET 12.668781 0.000000 0.000000
                            }
                        }
                    }
                }
            }
            JOINT RightShoulder
            {
                OFFSET -3.409204 14.146137 -0.012206
                CHANNELS 3 Zrotation Xrotation Yrotation
                JOINT RightArm
                {
                    OFFSET -11.765518 0.000000 0.000000
                    CHANNELS 3 Zrotation Xrotation Yrotation
                    JOINT RightForeArm
                    {
                        OFFSET -25.163450 0.000000 0.000000
                        CHANNELS 3 Zrotation Xrotation Yrotation
                        JOINT RightHand
                        {
                            OFFSET -21.783554 0.000000 0.000000
                            CHANNELS 3 Zrotation Xrotation Yrotation
                            End Site
                            {
                                OFFSET -12.668781 0.000000 0.000000
                            }
                        }
                    }
                }
            }
        }
    }
    JOINT LeftUpLeg
    {
        OFFSET 8.445854 0.000000 0.000000
        CHANNELS 3 Zrotation Xrotation Yrotation
        JOINT LeftLeg
        {
            OFFSET -0.000000 -40.674755 0.000000
            CHANNELS 3 Zrotation Xrotation Yrotation
            JOINT LeftFoot
            {
                OFFSET -0.000000 -37.111794 0.000000
                CHANNELS 3 Zrotation Xrotation Yrotation
                JOINT LeftToeBase
                {
                    OFFSET -0.000000 -5.489805 12.668781
                    CHANNELS 3 Zrotation Xrotation Yrotation
                    End Site
                    {
                        OFFSET -0.000000 0.000000 3.378341
                    }
                }
            }
        }
    }
    JOINT RightUpLeg
    {
        OFFSET -8.445854 0.000000 0.000000
        CHANNELS 3 Zrotation Xrotation Yrotation
        JOINT RightLeg
        {
            OFFSET -0.000000 -40.674755 0.000000
            CHANNELS 3 Zrotation Xrotation Yrotation
            JOINT RightFoot
            {
                OFFSET -0.000000 -37.111794 0.000000
                CHANNELS 3 Zrotation Xrotation Yrotation
                JOINT RightToeBase
                {
                    OFFSET -0.000000 -5.489805 12.668781
                    CHANNELS 3 Zrotation Xrotation Yrotation
                    End Site
                    {
                        OFFSET -0.000000 0.000000 3.378341
                    }
                }
            }
        }
    }
}
MOTION
Frames:    5
Frame Time:    0.008333
7.395765    83.933685    10.646348    1.074719    1.129719    72.256523    -1.705487    -4.743759    -3.894489    0.969931    14.459920    -1.396290    -2.761528    18.180803    2.002370    -3.233717    -5.552128    1.523124    -1.307931    9.055248    9.932200    -45.118107    45.909557    -35.058590    5.922760    1.482019    -28.924000    -2.705709    3.093812    -3.561473    -1.512888    9.000891    -3.160934    43.132381    44.119503    36.516575    -1.013266    -3.989306    29.318272    0.147737    -3.714942    7.703113    4.381035    0.463474    -2.763757    1.882483    8.406721    0.367520    -5.781484    -4.225320    15.305900    -4.309432    -5.026893    1.343854    -3.948299    0.574413    22.371181    6.426993    4.945608    -18.834400    -0.731375    -8.820156    1.361093    -1.190916    1.626925    0.727285    
7.397167    83.928787    10.724594    1.021570    1.122758    72.303268    -1.536760    -4.775647    -3.829019    0.738533    14.565776    -1.348111    -2.622435    18.434700    2.086453    -3.209750    -5.881817    1.633809    -1.286811    8.993399    9.861810    -45.095982    45.839912    -35.014160    5.940133    1.475889    -28.929644    -2.684248    3.091862    -3.563596    -1.552864    8.963846    -3.039402    43.590687    43.992180    36.105213    -0.987347    -4.032795    29.398741    0.277631    -3.755835    7.654673    4.455525    0.453185    -2.859857    1.868307    8.328520    0.430788    -6.316132    -4.140596    15.324631    -4.221179    -4.833169    1.553349    -3.912385    0.594464    22.360510    6.473961    4.830541    -18.822292    -0.836479    -8.795657    1.331203    -0.815531    0.448509    1.718288    
7.393774    83.929794    10.793953    0.926099    1.178552    72.374283    -1.419172    -4.636368    -3.816244    0.564770    14.288003    -1.322595    -2.569559    18.589943    2.115792    -3.228392    -5.782026    1.680463    -1.348019    9.011751    9.907770    -45.068676    45.816223    -34.928722    5.914979    1.506433    -28.940416    -2.645410    3.114978    -3.551576    -1.656368    9.088569    -3.019683    43.732750    44.164520    36.055996    -1.057156    -4.202243    29.346165    0.270009    -3.908108    7.646945    4.467635    0.390590    -2.988537    1.917095    8.251139    0.468358    -5.935085    -4.094799    15.315371    -4.325675    -5.046793    1.346748    -3.905101    0.552802    22.542334    6.494844    4.709496    -19.081776    -0.914193    -8.768784    1.350531    -1.199584    1.632570    0.743277    
7.381400    83.942268    10.873858    0.811770    1.277045    72.404823    -1.769518    -4.703472    -3.708303    1.070973    14.314902    -1.345138    -2.657641    18.805113    2.109680    -3.247997    -5.765107    1.645157    -0.833804    8.505911    9.405570    -46.712994    46.323746    -33.784389    6.433605    1.357312    -28.645706    -2.721839    3.089641    -3.754447    -1.808672    9.097212    -2.972985    44.016968    43.895107    35.631310    -1.238361    -3.946476    29.759987    0.596198    -3.590533    5.315632    4.462712    0.270795    -3.065486    1.895238    8.193911    0.560542    -6.477724    -4.016749    15.316232    -4.237342    -4.855430    1.550010    -3.899572    0.491408    22.536964    6.430827    4.591913    -19.070131    -0.965365    -8.704857    1.323758    -0.818985    0.438154    1.748155    
7.375636    83.945999    10.954300    0.737009    1.318718    72.450233    -1.648046    -4.689137    -3.655743    0.845058    14.274986    -1.300742    -2.560344    18.861788    2.149321    -3.247808    -5.608531    1.718204    -0.821419    8.510579    9.363686    -46.840580    46.079132    -33.667492    6.382170    1.443322    -28.559982    -2.741447    3.158902    -3.794165    -1.835357    9.116014    -2.913812    44.371986    43.833454    35.424713    -1.023785    -4.095786    29.212133    0.335251    -3.807276    7.648265    4.519526    0.224587    -3.184715    1.878507    8.138186    0.625252    -6.066617    -3.978112    15.296811    -4.341110    -5.070155    1.337665    -3.876006    0.489304    22.539179    6.416864    4.457960    -19.062452    -1.054533    -8.656349    1.287125    -1.218229    1.652195    0.764480    
